<svg xmlns="http://www.w3.org/2000/svg" xmlns:xlink="http://www.w3.org/1999/xlink" version="1.1" width="1000" height="1000" viewBox="0 0 1000 1000" xml:space="preserve">
<desc>Created with Fabric.js 3.5.0</desc>
<defs>
</defs>
<rect x="0" y="0" width="100%" height="100%" fill="rgba(255,255,255,0)"/>
<g transform="matrix(2.7797 0 0 2.6507 491.6663 495.7516)" id="875334">
<path style="stroke: none; stroke-width: 1; stroke-dasharray: none; stroke-linecap: butt; stroke-dashoffset: 0; stroke-linejoin: miter; stroke-miterlimit: 4; is-custom-font: none; font-file-url: none; fill: rgb(253,95,7); fill-rule: evenodd; opacity: 1;" vector-effect="non-scaling-stroke" transform=" translate(-164.328, -169.5)" d="M 319.08535 56.2798433 C 315.484251 45.3519415 309.708669 35.1736998 302.098669 26.7546604 C 294.517699 18.317058 285.261285 11.5358473 275.0925 6.94507194 C 254.738342 -2.34642898 230.850822 -2.27074901 210.712315 6.906518 C 190.519896 15.9809745 174.57 33.9199826 167.323565 55.1260807 C 165.512648 60.4236785 164.236712 65.9111901 163.520639 71.467242 C 162.754801 76.9690329 162.758948 82.80353 162.848803 87.9511957 L 163.133573 119.705368 L 163.613259 183.216568 L 163.784674 214.97074 C 163.805409 220.264054 163.747349 225.55594 163.82891 230.847826 C 163.85794 233.475206 163.947794 236.185405 163.931206 238.742817 C 163.964383 241.298801 163.787438 243.840506 163.737673 246.402201 C 163.412813 251.499889 162.850185 256.62328 161.781605 261.682415 C 160.746203 266.750117 159.0832 271.697873 156.959865 276.431441 C 152.692459 285.887153 146.662519 294.637471 139.059431 301.734253 C 123.811784 315.835001 102.937851 323.522944 82.4634262 321.732327 C 72.2407287 321.034072 62.1604163 318.106828 53.0947706 313.184775 C 44.0097715 308.278428 36.0140877 301.308731 29.6496118 293.03534 C 26.4521677 288.90864 23.6376427 284.472081 21.2323021 279.812765 C 18.8255792 275.159161 16.7934811 270.282801 15.3848362 265.216527 C 12.3380715 255.149663 11.6358226 244.421671 13.0223494 234.209159 C 13.7826582 229.092907 14.9659752 224.046624 16.5446527 219.184543 C 18.1896845 214.339597 20.2245474 209.687421 22.6022404 205.319402 C 24.9453739 200.93282 27.7198098 196.878944 30.7389269 193.16063 C 33.7082784 189.406618 37.0176953 186.011015 40.6671776 183.123753 C 54.9347179 171.187737 73.8608776 166.055778 93.204516 165.984382 C 113.22552 166.014368 133.245142 166.318516 153.270294 166.199998 L 153.11685 144.509834 C 133.182935 144.949635 113.239344 146.329009 93.3081945 147.832613 C 82.1938621 148.679372 71.2136206 151.439549 60.8969213 155.868969 C 55.7309686 158.047981 50.8262856 160.839572 46.1731957 163.909608 C 41.5422239 167.023911 37.1421095 170.472347 33.2258279 174.419128 C 29.2362803 178.281663 25.7374774 182.626835 22.6202113 187.191908 C 19.4891214 191.752697 16.7533921 196.586219 14.5388199 201.656777 C 9.91475996 211.723641 6.95232038 222.500183 5.75379723 233.679399 C 4.64789351 244.962854 5.34875999 256.52761 7.92275089 267.748236 C 10.5409779 278.966006 15.1857736 289.819656 21.7506945 299.642344 C 28.332204 309.425051 36.8918988 318.212495 47.1270376 324.906602 C 57.345588 331.587858 69.1939639 336.080107 81.3146687 337.902138 C 82.8325215 338.184867 84.3462272 338.330515 85.8668448 338.494726 C 87.3833153 338.663221 88.9053153 338.827432 90.5033462 338.875982 C 92.0875533 338.964513 93.6717603 339.024486 95.2532026 338.990216 C 96.8401745 339 98.4257639 338.957373 100.004441 338.840284 C 106.34127 338.49187 112.638009 337.386657 118.748127 335.60318 C 124.862392 333.839694 130.816301 331.447922 136.508941 328.484979 C 142.208492 325.523465 147.559684 321.86084 152.59431 317.764127 C 162.561268 309.422195 170.761544 298.811293 176.844014 287.026636 C 177.627823 285.564442 178.341131 284.065122 179.01435 282.545811 C 179.713834 281.036496 180.345582 279.500049 180.933093 277.942184 C 182.185529 274.862153 183.200196 271.67931 184.040683 268.462198 C 185.774187 262.03654 186.853825 255.472374 187.57681 248.921059 C 187.831168 245.636834 188.158792 242.361176 188.251411 239.082663 L 188.411767 234.818882 L 188.612212 230.847826 L 189.351785 214.97074 L 190.052652 183.216568 L 191.399089 119.705368 L 192.047425 87.9511957 L 192.112397 83.9815672 L 192.133133 83.0319978 L 192.17184 82.3680132 L 192.238194 81.038616 C 192.351549 79.2722742 192.553376 77.5216394 192.831235 75.7924236 C 193.413217 72.3397035 194.21085 68.9412446 195.405226 65.6784385 C 197.774624 59.1471145 201.497373 53.1669691 206.078579 48.0007404 C 210.706786 42.865926 216.362101 38.7078115 222.574515 35.9105086 C 228.797988 33.1203453 235.552295 31.7052727 242.453134 31.6924213 C 249.345679 31.5767595 256.173252 32.9247197 262.533581 35.677757 C 268.88838 38.4236547 274.763494 42.5703457 279.611499 47.802259 C 284.423563 53.0613027 288.319109 59.2713439 290.80601 66.1025319 C 293.308117 72.9108731 294.431992 80.3660639 294.07119 87.8441014 C 293.740802 95.2821571 291.949238 102.6531 288.707557 109.435739 C 285.447906 116.184107 280.847347 122.407 275.080059 127.280504 C 269.332124 132.161148 262.604083 135.830913 255.396355 137.90997 C 251.800786 138.982341 248.087714 139.710582 244.299994 140.023297 L 242.876143 140.113256 C 242.35775 140.140387 242.032891 140.191792 241.314054 140.20036 L 237.471038 140.307454 L 229.785007 140.518787 L 201.157307 141.308429 L 200.629238 166.245692 L 229.785007 166.642655 L 237.471038 166.746893 L 241.314054 166.799726 L 245.429398 166.761173 C 250.979652 166.586966 256.525759 165.817315 261.947452 164.480778 C 272.812956 161.863393 283.160068 156.808543 292.046004 149.756027 C 300.973412 142.742064 308.280671 133.620486 313.642921 123.469375 C 324.396453 103.074338 326.356667 78.1542097 319.08535 56.2798433" stroke-linecap="round"/>
</g>
</svg>